<svg id="Layer_1" data-name="Layer 1" xmlns="http://www.w3.org/2000/svg" viewBox="0 0 1080 1080"><defs><style>.cls-1{fill:#64b846;}.cls-2{fill:#4d8c40;}</style></defs><path class="cls-1" d="M741.69,200c-13.63,23-5.24,60.89-5.24,60.89,98,466.24-301.81,456.35-301.81,456.35s-208.58-332,255.47-482.4C690.11,234.84,728.06,223,741.69,200Z"/><path class="cls-2" d="M722.73,232,441.1,720.87l.46-.9c-13.42,29.28-24,47.94-18.35,59.47s27.64,15.9,26.36,18.57c-2.75,5.82-35.57-15.63-38.66-9.94l-13.58,28.38c-1.55,2.83-2.87,5.76-4.66,8.54l-10.2,16.91c-1.83,2.8-6.15,4.84-6.18,8.28-.07,8,17.35,24.21,11.61,29.75-1.57,1.51-16.91-22.35-16.91-22.35l-15.05-11.67,5.54-6.89c1.83-2.36,12.41-15,11.84-17.95-2.54-13.37-41.24-17.28-45.22-30.29-.91-2.95,52.12,20.13,53.68,17.42,1.17-2.05,4.59-8.24,4.59-8.24,3.15-5.45,6.05-11.06,8.9-16.71q9-17.46,17.43-35.36c1.34-2.86-43-24.63-41.71-27.5,1.82-4,27.14,13.15,39.92,13.72,13.73.6,15-15.33,16.84-19.61l.22-.57.21-.32Z"/><path class="cls-2" d="M487.59,621.07S485.72,610,481,593.56a275.34,275.34,0,0,0-9.56-27.47c-2.34-4.76-4.46-9.88-7.28-14.68-2.95-4.6-6-9.58-9.36-14.39a167.3,167.3,0,0,1-9.29-14.83c-3.06-5-5.4-10.06-8-14.87-4.9-9.75-9.05-19-12.46-27-6.82-16-10.38-26.92-10.38-26.92s4.12,10.79,11.72,26.39c3.81,7.79,8.41,16.82,13.77,26.25,2.79,4.64,5.42,9.61,8.61,14.3a166.75,166.75,0,0,0,9.87,14.13c3.55,4.6,6.85,9.41,10.32,14.3,3.24,4.92,5.67,10.08,8.37,15a280.67,280.67,0,0,1,11.26,27.79c2.8,8.28,4.86,15.25,6.21,20.17s2,7.76,2,7.76Z"/><path class="cls-2" d="M510.12,583.12a280.21,280.21,0,0,0-6.55-27.51A267.84,267.84,0,0,0,494,528.14c-2.34-4.76-4.46-9.88-7.28-14.68-3-4.61-6-9.58-9.36-14.4a167.14,167.14,0,0,1-9.29-14.82c-3-5-5.4-10.06-8-14.87-4.9-9.76-9-19-12.45-27-6.82-16-10.39-26.92-10.39-26.92s4.12,10.79,11.73,26.38c3.8,7.8,8.4,16.84,13.76,26.27,2.79,4.63,5.42,9.61,8.63,14.28a161.42,161.42,0,0,0,9.85,14.15c3.55,4.6,6.85,9.41,10.32,14.3,3.24,4.92,5.67,10.08,8.39,14.92a287.62,287.62,0,0,1,11.25,27.81c2.81,8.27,4.85,15.25,6.2,20.18s2,7.76,2,7.76Z"/><path class="cls-2" d="M532.66,545.14a280.14,280.14,0,0,0-6.56-27.49,273.67,273.67,0,0,0-9.55-27.49c-2.35-4.73-4.47-9.86-7.29-14.65-2.95-4.61-6-9.58-9.36-14.4a161.39,161.39,0,0,1-9.27-14.84c-3.06-5-5.42-10-8-14.85-4.9-9.76-9.05-19-12.45-27-6.82-16-10.39-26.92-10.39-26.92s4.13,10.77,11.73,26.38c3.8,7.8,8.4,16.83,13.76,26.26,2.8,4.62,5.42,9.62,8.63,14.28a160.9,160.9,0,0,0,9.85,14.16c3.56,4.57,6.86,9.4,10.32,14.3,3.24,4.91,5.67,10.07,8.39,14.92a292.39,292.39,0,0,1,11.26,27.79c2.8,8.28,4.85,15.25,6.19,20.2l2,7.76Z"/><path class="cls-2" d="M555.19,507.19s-1.62-9.76-5.72-24.3a239.83,239.83,0,0,0-8.35-24.3c-2-4.19-3.9-8.73-6.38-13-2.67-4.27-5.4-8.58-8.1-12.91s-5.48-8.74-8.15-13.05c-2.91-4.15-4.74-8.94-7-13.21-4.41-8.66-8.28-16.77-11.07-23.92-3-7.06-5.41-13-6.83-17.22s-2.38-6.61-2.38-6.61,1,2.36,2.77,6.48,4.36,9.94,7.8,16.81c3.19,7,7.49,14.83,12.27,23.1,2.48,4.11,4.45,8.57,7.6,12.63,2.94,4.13,5.92,8.35,8.9,12.57s6,8.51,9,12.69c2.88,4.36,5.07,8.92,7.48,13.23a255.85,255.85,0,0,1,10.06,24.62c5,14.6,7.34,24.74,7.34,24.74Z"/><path class="cls-2" d="M578.88,469.05s-1.51-8.81-5.26-21.87A212.72,212.72,0,0,0,566,425.34c-1.87-3.77-3.55-7.86-5.8-11.68-2.44-3.79-4.89-7.69-7.35-11.56s-5-7.81-7.37-11.66c-2.62-3.75-4.29-8-6.32-11.82-4-7.76-7.48-15-10-21.45-2.75-6.31-4.92-11.61-6.22-15.41s-2.17-5.93-2.17-5.93l2.45,5.83c1.47,3.72,3.9,8.93,6.94,15.12,2.84,6.28,6.67,13.35,10.93,20.81,2.21,3.69,4,7.72,6.78,11.38,2.62,3.73,5.27,7.54,7.94,11.32s5.35,7.67,8,11.41c2.55,3.92,4.48,8,6.64,11.86a232.23,232.23,0,0,1,8.89,22.08,226.39,226.39,0,0,1,6.46,22.2Z"/><path class="cls-2" d="M601.41,431.07s-1.32-7.86-4.65-19.59A196.47,196.47,0,0,0,590,391.91c-1.67-3.37-3.17-7-5.18-10.46-2.17-3.41-4.35-6.89-6.54-10.38s-4.42-7-6.6-10.48-3.8-7.2-5.63-10.63c-3.55-7-6.68-13.5-8.94-19.25-2.45-5.68-4.38-10.45-5.53-13.87s-1.94-5.31-1.94-5.31.81,1.91,2.23,5.21,3.5,8,6.25,13.56c2.56,5.63,6,12,9.86,18.64,2,3.31,3.58,6.9,6.11,10.17,2.35,3.35,4.74,6.74,7.12,10.16s4.84,6.86,7.23,10.22,4.06,7.17,6,10.65A200.33,200.33,0,0,1,602.47,410c4,11.77,5.86,19.95,5.86,19.95Z"/><path class="cls-2" d="M624,393.12s-1.09-6.66-3.87-16.61a160,160,0,0,0-5.65-16.62c-1.38-2.86-2.65-6-4.33-8.85-1.83-2.91-3.67-5.89-5.53-8.84s-3.71-6-5.54-8.93-3.22-6.14-4.76-9.06c-3-5.94-5.62-11.52-7.52-16.4-2.06-4.83-3.68-8.9-4.63-11.8l-1.64-4.51,1.91,4.4c1.14,2.84,3,6.81,5.37,11.49,2.2,4.77,5.15,10.15,8.44,15.79,1.7,2.81,3,5.85,5.23,8.61l6.1,8.6c2.08,2.91,4.13,5.83,6.17,8.68s3.49,6.1,5.16,9.06A170.12,170.12,0,0,1,625.78,375a172.82,172.82,0,0,1,5.09,16.94Z"/><path class="cls-2" d="M647.62,355s-.82-4.94-2.89-12.33a122.8,122.8,0,0,0-4.24-12.3c-1-2.14-2-4.44-3.24-6.59s-2.74-4.34-4.11-6.53-2.78-4.43-4.13-6.61a66.32,66.32,0,0,1-3.55-6.68c-2.23-4.4-4.19-8.51-5.61-12.14s-2.74-6.58-3.46-8.74l-1.22-3.32s.52,1.19,1.41,3.28,2.21,5,3.94,8.52,3.81,7.52,6.23,11.71a61.56,61.56,0,0,0,3.85,6.39c1.5,2.11,3,4.25,4.51,6.38s3,4.31,4.55,6.43,2.55,4.53,3.79,6.7a131.35,131.35,0,0,1,5.08,12.49,126.9,126.9,0,0,1,3.71,12.55Z"/><path class="cls-2" d="M670.17,317s-.72-3.91-2.16-9.55c-.85-2.79-2-6-3.2-9.52L662.17,293c-.87-1.62-1.83-3.52-2.94-5.21s-2.12-3.45-3.17-5.13a48.93,48.93,0,0,1-2.7-5.23c-1.7-3.41-3.2-6.62-4.28-9.43-2.37-5.56-3.54-9.39-3.54-9.39a96.74,96.74,0,0,0,4.23,9.11c1.27,2.74,3,5.81,4.88,9a49,49,0,0,0,3,4.93c1.18,1.62,2.36,3.27,3.53,4.91s2.22,3.27,3.36,5.07,2.16,3.47,3.22,5.13c1.47,3.52,3,6.81,4,9.7,2,5.83,3,9.68,3,9.69Z"/><path class="cls-2" d="M693.85,278.88s-.33-1.8-1-4.36c-.37-1.28-.91-2.74-1.43-4.33-.8-1.49-1.64-3.09-2.5-4.67-1.64-3.29-3.73-6.35-4.59-9s-1.64-4.28-1.64-4.28.8,1.64,2,4.12,3.37,5.45,5.26,8.6c1,1.58,2,3.16,3,4.64.69,1.6,1.37,3.11,1.87,4.4.91,2.68,1.36,4.44,1.36,4.44Z"/><path class="cls-2" d="M467.07,655.64a224.37,224.37,0,0,0-12.26-43c-1.8-3.7-3.43-7.74-5.61-11.48l-7.13-11.44c-2.41-3.87-4.82-7.77-7.18-11.59-2.55-3.68-4.19-7.93-6.16-11.73-3.88-7.7-7.26-14.92-9.73-21.26-2.66-6.26-4.76-11.52-6-15.28s-2.1-5.86-2.1-5.86l2.47,5.72c1.49,3.67,3.91,8.8,7,14.88,2.84,6.17,6.69,13.13,10.95,20.42,2.21,3.64,3.95,7.57,6.77,11.15,2.6,3.68,5.26,7.41,7.91,11.15s5.38,7.51,8,11.22c2.58,3.88,4.53,7.92,6.68,11.73A233.26,233.26,0,0,1,476.3,654Z"/><path class="cls-2" d="M446.55,690.21a187.81,187.81,0,0,0-4.25-18.78,180.45,180.45,0,0,0-6.27-18.8c-1.55-3.24-2.95-6.75-4.82-10-2-3.29-4.12-6.65-6.19-10s-4.18-6.8-6.23-10.15c-2.21-3.24-3.62-7-5.35-10.3-3.35-6.77-6.29-13.08-8.42-18.64-2.3-5.48-4.12-10.09-5.16-13.4S398,575,398,575l2.19,5c1.32,3.21,3.46,7.68,6.16,13,2.51,5.41,5.89,11.44,9.65,17.8,1.93,3.17,3.48,6.59,6,9.72l7,9.7L436,640c2.28,3.4,4,6.94,5.92,10.28a195,195,0,0,1,8,19.11,198.71,198.71,0,0,1,5.87,19.23Z"/><path class="cls-2" d="M490.62,616s2.88-.82,7.91-2.21,12.27-3.08,21.05-4.86A300.91,300.91,0,0,1,550,604.52c5.68-.17,11.5-.68,17.49-.41,6.08.47,12,.85,17.88,1.54s11.77,1.06,17.52,1.26c5.77.35,11.51.07,17,.11,11.07-.2,21.41-.84,30.25-1.51,17.69-1.4,29.36-3.32,29.36-3.32s-11.54,2.48-29.15,4.71c-8.82,1.11-19.13,2.24-30.26,3-5.57.22-11.29.8-17.22.7-5.92.09-12,.08-17.85-.42s-11.92-.51-17.5-.7c-5.68,0-11.3.8-16.7,1.2a292.32,292.32,0,0,0-29.22,5.68c-17,4.27-27.78,8.22-27.78,8.22Z"/><path class="cls-2" d="M513.15,578l7.91-2.21c5.05-1.32,12.29-3.1,21.05-4.85a298.16,298.16,0,0,1,30.39-4.41c5.66-.15,11.48-.67,17.48-.39,6.07.46,12,.84,17.87,1.54a169.8,169.8,0,0,0,17.54,1.23c5.75.37,11.49.1,17,.14,11.07-.2,21.41-.84,30.26-1.54,17.68-1.37,29.35-3.29,29.35-3.29s-11.53,2.46-29.15,4.71c-8.82,1.11-19.12,2.23-30.26,3-5.57.22-11.28.77-17.22.7a177.14,177.14,0,0,1-17.85-.43c-6-.43-11.92-.51-17.5-.69-5.67,0-11.3.79-16.7,1.2a284.57,284.57,0,0,0-29.22,5.68c-17,4.25-27.78,8.22-27.78,8.22Z"/><path class="cls-2" d="M535.68,540.07l7.91-2.21c5.06-1.35,12.29-3.1,21.06-4.88s19.16-3.32,30.38-4.39c5.66-.14,11.48-.66,17.47-.39,6.08.47,12,.83,17.88,1.55A172.63,172.63,0,0,0,647.92,531c5.75.37,11.5.08,17,.13,11.07-.19,21.41-.83,30.26-1.53,17.7-1.4,29.35-3.29,29.35-3.29S713,528.75,695.39,531c-8.82,1.12-19.12,2.24-30.26,3-5.57.23-11.28.78-17.21.69a171.56,171.56,0,0,1-17.86-.41c-6-.44-11.92-.51-17.5-.69-5.67,0-11.3.79-16.69,1.17a295.08,295.08,0,0,0-29.23,5.7c-17,4.25-27.77,8.2-27.77,8.2Z"/><path class="cls-2" d="M558.22,502.1s10.18-3.13,25.7-6.19c7.8-1.54,17-2.88,26.94-3.83,5-.12,10.2-.54,15.52-.3,5.21.41,10.49.83,15.78,1.23l15.65,1.22c5.18.63,10.14,0,15,.09,9.74-.11,18.89-.4,26.69-1.2,7.84-.54,14.36-1.15,18.87-1.83l7.15-.9-7.07,1.29c-4.48.93-11,1.89-18.75,2.86-7.77,1.21-16.91,2-26.81,2.63-4.94.23-10.12,1.08-15.26.71-5.18-.1-10.44-.23-15.7-.35s-10.4-.26-15.54-.37-10,.73-14.72,1.1a261.55,261.55,0,0,0-25.81,5.1c-15,3.81-24.5,7.32-24.5,7.32Z"/><path class="cls-2" d="M581.14,465.23s9.11-2.86,23-5.65c7-1.4,15.19-2.65,24.12-3.54,4.49-.1,9.1-.52,13.85-.34,4.66.37,9.42.72,14.16,1.05s9.41.69,14.05,1c4.66.53,9.13,0,13.52,0,8.77-.14,17-.44,24-1.19,7-.52,12.89-1.09,16.94-1.7l6.41-.85s-2.31.4-6.36,1.14S715,456.82,708,457.66c-7,1.08-15.18,1.77-24.07,2.29-4.44.2-9,.91-13.7.58l-14.07-.39c-4.67-.14-9.36-.26-14-.41-4.51,0-9,.63-13.3.94a231.59,231.59,0,0,0-23.24,4.49c-13.51,3.38-22.09,6.51-22.1,6.5Z"/><path class="cls-2" d="M603.66,427.27s8.2-2.54,20.69-5a217.58,217.58,0,0,1,21.66-3.1c4.06-.12,8.21-.48,12.48-.28s8.45.64,12.7,1,8.46.62,12.61.93c4.18.49,8.17.05,12.12.07,7.85-.1,15.23-.35,21.51-1,6.31-.45,11.55-.94,15.19-1.5s5.75-.73,5.75-.73l-5.69,1c-3.62.74-8.82,1.49-15.11,2.26-6.25,1-13.62,1.61-21.61,2.09-4,.17-8.12.85-12.28.56l-12.61-.31c-4.2-.11-8.4-.21-12.53-.34s-8.06.59-11.89.87a209.09,209.09,0,0,0-20.81,4.07c-12.1,3.06-19.76,5.87-19.76,5.87Z"/><path class="cls-2" d="M626.22,389.3s7-2.14,17.62-4.18a183.15,183.15,0,0,1,18.46-2.58c3.47-.08,7-.38,10.64-.18s7.2.57,10.81.87l10.7.83c3.56.47,6.94.08,10.28.11,6.67,0,12.94-.25,18.28-.78,5.35-.35,9.81-.76,12.91-1.22l4.87-.59-4.81.89c-3.08.64-7.5,1.31-12.84,2-5.3.84-11.57,1.42-18.35,1.86-3.38.16-6.92.74-10.44.53s-7.13-.16-10.74-.22-7.11-.15-10.62-.24-6.8.51-10,.77a173.4,173.4,0,0,0-17.62,3.55c-10.25,2.63-16.71,5-16.72,5Z"/><path class="cls-2" d="M649.13,352.43s5.17-1.6,13-3.14a137.14,137.14,0,0,1,13.67-2c2.54,0,5.15-.29,7.85-.16l8,.62,7.92.61a66.85,66.85,0,0,0,7.61,0c4.95,0,9.58-.19,13.54-.6s7.27-.6,9.55-.94l3.63-.45-3.57.63c-2.28.48-5.56.95-9.51,1.45s-8.58,1-13.6,1.35a72.39,72.39,0,0,1-7.72.35c-2.63-.06-5.29-.14-8-.19l-7.87-.2c-2.54,0-5.06.37-7.48.56A129.86,129.86,0,0,0,663.16,353c-7.61,1.94-12.42,3.72-12.42,3.72Z"/><path class="cls-2" d="M671.71,314.45s3.93-1.09,10.11-2.33c3.11-.54,6.78-.93,10.66-1.44l6.17.14c2.18.07,4.14.07,6.19.29s4.1.34,6.13.53a55.73,55.73,0,0,0,5.9.08c3.8,0,7.39-.1,10.46-.4,6.16-.33,10.22-1,10.22-1s-4,.94-10.12,1.72c-3,.49-6.64.84-10.54,1.11a53.65,53.65,0,0,1-6,.32l-6.16-.1c-2.05-.09-4.23.05-6.11.13l-5.72.25c-3.72.77-7.16,1.38-10.06,2.07-5.75,1.6-9.58,2.94-9.58,2.94Z"/><path class="cls-2" d="M694.62,277.58s1.8-.49,4.63-1.07c1.41-.22,3.09-.41,4.85-.63l5.61.18c3.75,0,7.54.53,10.29.14s4.65-.4,4.65-.4l-4.63.75c-2.79.61-6.55.37-10.3.63l-5.41.23c-1.68.36-3.24.64-4.57,1-2.6.74-4.36,1.37-4.36,1.37Z"/><path class="cls-2" d="M470.09,650.55s9.18-2.8,23.15-5.51a236.81,236.81,0,0,1,24.25-3.35c4.54-.11,9.17-.48,14-.25l14.18,1.15,14.05,1.12c4.65.59,9.11.09,13.5.13,8.75-.06,16.94-.29,24-1,7-.47,12.89-1,16.94-1.58l6.42-.79-6.35,1.17c-4,.84-9.82,1.72-16.83,2.61-7,1.12-15.17,1.86-24.09,2.45-4.43.23-9.08,1-13.71.69-4.64-.09-9.36-.17-14.08-.28l-13.93-.31c-4.48,0-8.94.68-13.2,1a234.78,234.78,0,0,0-23.11,4.66c-13.44,3.46-21.94,6.64-21.94,6.64Z"/><path class="cls-2" d="M449.57,685.11s8-2.4,20.06-4.66a209.67,209.67,0,0,1,21-2.84c3.93,0,7.94-.36,12.1-.13s8.14.69,12.26,1l12.12,1c4,.52,7.84.12,11.63.17,7.54,0,14.6-.18,20.66-.77,6.08-.37,11.13-.8,14.64-1.29l5.54-.65-5.46,1c-3.47.77-8.48,1.54-14.52,2.35-6,1-13.09,1.66-20.79,2.22-3.84.21-7.86.88-11.85.63l-12.15-.17c-4-.07-8-.13-12-.21s-7.68.63-11.34.95a192.54,192.54,0,0,0-19.87,4.1c-11.54,3-18.84,5.81-18.84,5.81Z"/></svg>