<svg id="Layer_1" data-name="Layer 1" xmlns="http://www.w3.org/2000/svg" viewBox="0 0 1080 1080"><defs><style>.cls-1{font-size:166.87px;fill:#64b746;font-family:ProximaNova-Bold, Proxima Nova;font-weight:700;}.cls-2{fill:#64b846;}.cls-3{fill:#4d8c40;}</style></defs><text class="cls-1" transform="translate(100.94 576.24)">Foliage</text><path class="cls-2" d="M970.29,248.18c-11.71,19.71-4.5,52.26-4.5,52.26,84.09,400.17-259,391.69-259,391.69s-179-284.94,219.27-414C926,278.08,958.58,267.89,970.29,248.18Z"/><path class="cls-3" d="M954,275.6,712.29,695.24l.39-.77c-11.52,25.13-20.62,41.15-15.75,51s23.72,13.65,22.63,15.94c-2.37,5-30.53-13.42-33.18-8.53l-11.66,24.36c-1.33,2.42-2.46,4.94-4,7.33L662,799.12c-1.56,2.4-5.28,4.16-5.3,7.1-.06,6.86,14.89,20.78,10,25.54-1.35,1.3-14.51-19.19-14.51-19.19l-12.92-10,4.76-5.91c1.57-2,10.65-12.85,10.16-15.41-2.18-11.47-35.4-14.83-38.81-26-.78-2.54,44.73,17.27,46.07,14.94,1-1.75,3.94-7.06,3.94-7.06,2.71-4.69,5.19-9.5,7.64-14.35q7.77-15,15-30.35c1.15-2.46-36.93-21.14-35.8-23.6,1.56-3.41,23.29,11.29,34.27,11.77,11.78.52,12.85-13.15,14.44-16.83l.2-.49.18-.27Z"/><path class="cls-3" d="M752.19,609.58s-1.6-9.49-5.62-23.61a238.17,238.17,0,0,0-8.21-23.58c-2-4.08-3.83-8.48-6.25-12.59-2.53-4-5.13-8.23-8-12.36a143.24,143.24,0,0,1-8-12.72c-2.63-4.26-4.64-8.64-6.86-12.77-4.21-8.37-7.77-16.31-10.69-23.16-5.86-13.69-8.92-23.11-8.92-23.11s3.54,9.27,10.06,22.66c3.28,6.68,7.22,14.43,11.82,22.53,2.4,4,4.66,8.25,7.4,12.27a143.29,143.29,0,0,0,8.46,12.13c3,4,5.89,8.08,8.86,12.28,2.78,4.22,4.87,8.64,7.19,12.83a243.2,243.2,0,0,1,9.66,23.85c2.41,7.1,4.17,13.08,5.33,17.31s1.69,6.66,1.69,6.66Z"/><path class="cls-3" d="M771.53,577a241.07,241.07,0,0,0-5.63-23.62,230.23,230.23,0,0,0-8.2-23.57c-2-4.08-3.83-8.48-6.25-12.6-2.53-4-5.14-8.22-8-12.36a141.81,141.81,0,0,1-8-12.72c-2.62-4.27-4.64-8.64-6.86-12.76-4.21-8.38-7.77-16.31-10.69-23.16-5.85-13.72-8.92-23.11-8.92-23.11s3.54,9.26,10.07,22.64c3.26,6.7,7.21,14.45,11.81,22.54,2.39,4,4.66,8.26,7.41,12.26a139.61,139.61,0,0,0,8.45,12.15c3,3.95,5.88,8.07,8.86,12.27,2.78,4.22,4.87,8.65,7.2,12.81a244.15,244.15,0,0,1,9.65,23.87c2.41,7.09,4.16,13.09,5.33,17.32s1.69,6.66,1.69,6.66Z"/><path class="cls-3" d="M790.88,544.42s-1.61-9.49-5.64-23.6a236.9,236.9,0,0,0-8.19-23.59c-2-4.07-3.84-8.47-6.26-12.58-2.53-4-5.14-8.23-8-12.36a138.53,138.53,0,0,1-8-12.74c-2.62-4.26-4.65-8.62-6.87-12.75-4.2-8.37-7.77-16.3-10.69-23.16-5.85-13.71-8.91-23.1-8.91-23.1s3.55,9.24,10.07,22.63c3.26,6.7,7.21,14.46,11.8,22.55,2.41,4,4.66,8.25,7.41,12.26a139.61,139.61,0,0,0,8.46,12.14c3.06,3.93,5.88,8.08,8.85,12.28,2.78,4.22,4.88,8.64,7.2,12.81a246.51,246.51,0,0,1,9.67,23.85c2.4,7.11,4.16,13.09,5.31,17.33l1.7,6.66Z"/><path class="cls-3" d="M810.21,511.84s-1.39-8.38-4.91-20.86a206,206,0,0,0-7.17-20.85c-1.76-3.6-3.34-7.49-5.47-11.12-2.3-3.67-4.64-7.37-7-11.09s-4.69-7.5-7-11.2c-2.49-3.56-4.07-7.67-6-11.34-3.78-7.43-7.1-14.39-9.5-20.53-2.61-6.05-4.65-11.15-5.86-14.78s-2.05-5.67-2.05-5.67.86,2,2.38,5.56,3.74,8.53,6.69,14.43c2.74,6,6.44,12.73,10.54,19.82,2.13,3.53,3.81,7.36,6.52,10.84,2.52,3.55,5.08,7.17,7.63,10.8s5.18,7.3,7.72,10.88c2.47,3.75,4.35,7.66,6.42,11.36a219.32,219.32,0,0,1,8.63,21.13c4.32,12.53,6.3,21.24,6.3,21.24Z"/><path class="cls-3" d="M830.54,479.1s-1.3-7.55-4.51-18.77a185.34,185.34,0,0,0-6.54-18.74c-1.61-3.24-3-6.75-5-10-2.09-3.26-4.2-6.61-6.31-9.93s-4.25-6.7-6.33-10c-2.24-3.22-3.68-6.86-5.42-10.14-3.42-6.67-6.42-12.89-8.59-18.41-2.36-5.42-4.23-10-5.34-13.23s-1.86-5.09-1.86-5.09l2.1,5c1.27,3.19,3.35,7.66,6,13,2.44,5.4,5.72,11.46,9.38,17.86,1.89,3.17,3.41,6.63,5.82,9.77,2.25,3.21,4.52,6.47,6.82,9.72s4.59,6.58,6.86,9.79c2.19,3.36,3.84,6.87,5.7,10.18A199.19,199.19,0,0,1,830.93,459a192.94,192.94,0,0,1,5.55,19.06Z"/><path class="cls-3" d="M849.88,446.5s-1.14-6.74-4-16.81a169.14,169.14,0,0,0-5.81-16.79c-1.43-2.89-2.72-6-4.44-9S831.9,398,830,395s-3.79-6-5.66-9-3.27-6.18-4.84-9.12c-3-6-5.74-11.59-7.67-16.52-2.1-4.88-3.76-9-4.75-11.9s-1.66-4.56-1.66-4.56l1.91,4.47c1.14,2.88,3,6.88,5.37,11.63,2.19,4.83,5.16,10.28,8.46,16,1.7,2.84,3.07,5.92,5.24,8.73l6.12,8.72c2.08,2.94,4.15,5.89,6.2,8.78s3.49,6.15,5.14,9.14a172.76,172.76,0,0,1,6.91,17c3.46,10.11,5,17.13,5,17.13Z"/><path class="cls-3" d="M869.23,413.93s-.94-5.71-3.33-14.25a136.33,136.33,0,0,0-4.84-14.27c-1.19-2.45-2.28-5.12-3.72-7.6s-3.16-5.05-4.75-7.58-3.18-5.14-4.76-7.66-2.75-5.28-4.08-7.78c-2.58-5.1-4.82-9.89-6.45-14.08s-3.16-7.63-4-10.13-1.4-3.86-1.4-3.86l1.64,3.77c1,2.44,2.58,5.84,4.61,9.86s4.41,8.71,7.24,13.56c1.46,2.4,2.62,5,4.49,7.39s3.48,4.91,5.23,7.38,3.55,5,5.3,7.44,3,5.24,4.43,7.78a150.31,150.31,0,0,1,5.94,14.46,145.67,145.67,0,0,1,4.36,14.54Z"/><path class="cls-3" d="M889.54,381.19s-.7-4.24-2.48-10.58a103.8,103.8,0,0,0-3.64-10.56c-.89-1.84-1.7-3.81-2.78-5.66l-3.53-5.6c-1.17-1.91-2.38-3.8-3.54-5.67a55.81,55.81,0,0,1-3.05-5.74c-1.91-3.78-3.59-7.3-4.81-10.42s-2.36-5.64-3-7.5l-1-2.85,1.21,2.82c.72,1.79,1.9,4.31,3.38,7.31s3.27,6.45,5.35,10.05a53.82,53.82,0,0,0,3.3,5.48c1.29,1.82,2.57,3.65,3.87,5.48l3.91,5.52c1.25,1.89,2.19,3.89,3.25,5.75a111.39,111.39,0,0,1,4.36,10.72,109.9,109.9,0,0,1,3.19,10.77Z"/><path class="cls-3" d="M908.9,348.62s-.62-3.35-1.86-8.19c-.73-2.39-1.74-5.15-2.74-8.17-.73-1.38-1.49-2.79-2.27-4.25s-1.57-3-2.52-4.47-1.82-3-2.72-4.41a42.4,42.4,0,0,1-2.32-4.48c-1.46-2.93-2.75-5.69-3.68-8.1-2-4.77-3-8.06-3-8.06a81.64,81.64,0,0,0,3.63,7.83c1.08,2.34,2.55,5,4.19,7.74a42.83,42.83,0,0,0,2.58,4.23c1,1.38,2,2.8,3,4.21s1.9,2.8,2.88,4.35,1.86,3,2.76,4.4c1.27,3,2.54,5.85,3.46,8.32,1.71,5,2.56,8.32,2.57,8.33Z"/><path class="cls-3" d="M929.22,315.88s-.28-1.54-.83-3.74c-.31-1.1-.78-2.35-1.22-3.72-.69-1.27-1.41-2.65-2.15-4-1.4-2.82-3.2-5.45-3.93-7.72s-1.42-3.67-1.42-3.67.69,1.4,1.69,3.53,2.9,4.68,4.53,7.38l2.54,4c.58,1.38,1.17,2.67,1.59,3.78.79,2.31,1.18,3.81,1.18,3.81Z"/><path class="cls-3" d="M734.58,639.26s-1.2-7.43-4.27-18.49a187,187,0,0,0-6.26-18.46c-1.55-3.18-2.94-6.64-4.81-9.85l-6.12-9.82c-2.07-3.32-4.14-6.67-6.17-9.94-2.18-3.17-3.59-6.81-5.28-10.07-3.33-6.61-6.23-12.81-8.35-18.25-2.28-5.38-4.08-9.89-5.14-13.12s-1.8-5-1.8-5l2.11,4.91c1.28,3.15,3.36,7.55,6,12.78,2.45,5.29,5.74,11.27,9.4,17.52,1.9,3.12,3.39,6.5,5.82,9.57,2.22,3.16,4.51,6.36,6.78,9.57s4.62,6.45,6.89,9.63,3.88,6.8,5.73,10.07A189.91,189.91,0,0,1,736.84,619a194,194,0,0,1,5.66,18.84Z"/><path class="cls-3" d="M717,668.93a161.4,161.4,0,0,0-3.64-16.13,155.43,155.43,0,0,0-5.39-16.13c-1.32-2.78-2.53-5.79-4.13-8.61-1.76-2.82-3.54-5.7-5.31-8.59s-3.59-5.84-5.35-8.71-3.11-6-4.6-8.84c-2.87-5.81-5.4-11.23-7.22-16-2-4.71-3.53-8.66-4.43-11.5s-1.57-4.38-1.57-4.38.69,1.55,1.88,4.28,3,6.58,5.29,11.14c2.15,4.63,5,9.82,8.28,15.28,1.66,2.72,3,5.65,5.12,8.33l6,8.33c2,2.83,4.06,5.63,6,8.42s3.44,5.95,5.09,8.81A167.67,167.67,0,0,1,719.85,651a171.54,171.54,0,0,1,5,16.5Z"/><path class="cls-3" d="M754.79,605.21l6.78-1.9c4.34-1.13,10.54-2.64,18.07-4.17a258.77,258.77,0,0,1,26.08-3.76c4.87-.15,9.86-.59,15-.36,5.21.4,10.3.73,15.34,1.33s10.1.91,15,1.08,9.88.06,14.62.09c9.5-.17,18.37-.72,26-1.3,15.18-1.19,25.2-2.84,25.2-2.84s-9.91,2.13-25,4c-7.57,1-16.42,1.92-26,2.56-4.79.19-9.69.68-14.79.6a150.61,150.61,0,0,1-15.32-.37c-5.12-.37-10.23-.43-15-.59-4.88,0-9.7.68-14.34,1a250.61,250.61,0,0,0-25.08,4.87c-14.59,3.67-23.84,7.06-23.84,7.06Z"/><path class="cls-3" d="M774.12,572.63l6.79-1.89c4.34-1.14,10.55-2.66,18.07-4.17a258.63,258.63,0,0,1,26.08-3.79c4.86-.12,9.86-.57,15-.33,5.21.4,10.3.73,15.34,1.32a143.57,143.57,0,0,0,15.05,1.06c4.94.32,9.86.09,14.6.12,9.51-.17,18.38-.72,26-1.32,15.17-1.18,25.18-2.82,25.18-2.82s-9.89,2.11-25,4c-7.57,1-16.42,1.92-26,2.56-4.78.19-9.68.67-14.78.61s-10.26.07-15.32-.37-10.23-.44-15-.59c-4.88,0-9.7.68-14.34,1A245.44,245.44,0,0,0,800.7,573c-14.58,3.64-23.84,7-23.84,7Z"/><path class="cls-3" d="M793.46,540.06l6.79-1.9c4.35-1.15,10.55-2.66,18.08-4.18s16.44-2.85,26.07-3.77c4.86-.13,9.86-.57,15-.33s10.32.7,15.35,1.32a146.32,146.32,0,0,0,15,1.06c4.94.32,9.87.06,14.6.11,9.5-.17,18.38-.72,26-1.31,15.19-1.2,25.19-2.83,25.19-2.83s-9.89,2.11-25,4c-7.57,1-16.41,1.92-26,2.56-4.78.19-9.68.66-14.77.58a145.1,145.1,0,0,1-15.33-.35c-5.13-.37-10.23-.43-15-.59-4.87,0-9.7.68-14.32,1A253.36,253.36,0,0,0,820,540.37c-14.59,3.65-23.84,7-23.84,7Z"/><path class="cls-3" d="M812.81,507.47s8.74-2.69,22.06-5.31c6.7-1.32,14.58-2.48,23.12-3.29,4.33-.1,8.75-.47,13.32-.26s9,.72,13.55,1.06l13.42,1c4.46.54,8.71.05,12.91.08,8.37-.09,16.22-.34,22.91-1,6.73-.47,12.33-1,16.2-1.58s6.14-.77,6.14-.77l-6.07,1.11c-3.85.79-9.4,1.62-16.09,2.45-6.67,1-14.52,1.72-23,2.26-4.24.2-8.68.93-13.09.61l-13.48-.3-13.34-.32c-4.29,0-8.55.63-12.63.94a224.43,224.43,0,0,0-22.15,4.38c-12.87,3.28-21,6.28-21,6.28Z"/><path class="cls-3" d="M832.48,475.83s7.82-2.46,19.74-4.85c6-1.21,13-2.28,20.7-3,3.86-.09,7.82-.45,11.9-.29,4,.31,8.07.62,12.15.89l12,.9c4,.46,7.84,0,11.61,0,7.53-.11,14.57-.37,20.59-1,6-.45,11-.94,14.53-1.47l5.51-.73-5.46,1c-3.46.69-8.45,1.39-14.46,2.11-6,.93-13,1.51-20.66,2-3.81.17-7.77.78-11.76.5l-12.07-.33c-4-.12-8-.22-12-.36s-7.73.55-11.41.81a197.64,197.64,0,0,0-20,3.86c-11.59,2.89-19,5.58-19,5.57Z"/><path class="cls-3" d="M851.81,443.25s7-2.18,17.76-4.32a186.44,186.44,0,0,1,18.59-2.67c3.48-.1,7.05-.4,10.71-.23l10.91.84,10.82.79c3.58.43,7,0,10.4.06,6.73-.08,13.07-.3,18.46-.87,5.41-.38,9.91-.81,13-1.28l4.93-.63s-1.78.31-4.88.88-7.57,1.28-13,1.94c-5.36.84-11.69,1.38-18.54,1.8-3.41.14-7,.72-10.54.48l-10.83-.28-10.75-.28c-3.47,0-6.92.5-10.21.74-6.6,1-12.7,2.2-17.86,3.49-10.39,2.63-17,5.05-17,5.05Z"/><path class="cls-3" d="M871.17,410.66a155.45,155.45,0,0,1,15.13-3.59,159.65,159.65,0,0,1,15.84-2.22c3-.06,6-.32,9.14-.15l9.27.74,9.19.72c3,.4,6,.07,8.82.09,5.72,0,11.1-.21,15.68-.67,4.6-.29,8.43-.65,11.09-1l4.18-.51-4.13.76c-2.64.55-6.44,1.12-11,1.7s-9.93,1.22-15.75,1.6c-2.9.13-5.94.64-9,.45s-6.12-.14-9.21-.19l-9.12-.2c-2.93,0-5.84.44-8.63.66a146.76,146.76,0,0,0-15.12,3.05c-8.8,2.25-14.34,4.32-14.35,4.32Z"/><path class="cls-3" d="M890.84,379s4.43-1.38,11.18-2.7c3.39-.67,7.4-1.25,11.74-1.67,2.17,0,4.42-.25,6.74-.14l6.86.54,6.8.52a57.09,57.09,0,0,0,6.53,0c4.25,0,8.23-.17,11.63-.52s6.24-.51,8.2-.8l3.11-.39-3.06.54c-2,.42-4.77.82-8.16,1.25s-7.37.88-11.68,1.16a65.49,65.49,0,0,1-6.63.3l-6.82-.17-6.76-.17c-2.18,0-4.34.32-6.42.49a109.37,109.37,0,0,0-11.22,2.21c-6.53,1.67-10.66,3.19-10.66,3.19Z"/><path class="cls-3" d="M910.21,346.41s3.38-.93,8.69-2c2.66-.46,5.81-.8,9.14-1.24l5.3.13c1.87.05,3.55.05,5.31.25s3.52.29,5.27.45a47.73,47.73,0,0,0,5.06.06c3.26,0,6.34-.08,9-.34,5.29-.28,8.78-.85,8.78-.85s-3.43.8-8.69,1.47c-2.61.42-5.7.72-9,1a45.85,45.85,0,0,1-5.15.28l-5.29-.09c-1.76-.07-3.63,0-5.24.11l-4.91.22c-3.19.66-6.15,1.19-8.64,1.77-4.93,1.38-8.23,2.53-8.23,2.53Z"/><path class="cls-3" d="M929.88,314.76s1.55-.42,4-.91c1.2-.2,2.65-.35,4.16-.54l4.82.15c3.21,0,6.47.45,8.83.12s4-.34,4-.34l-4,.64c-2.39.52-5.62.32-8.84.55-1.58.05-3.16.13-4.64.19-1.44.31-2.78.55-3.93.83-2.22.63-3.74,1.17-3.74,1.17Z"/><path class="cls-3" d="M737.17,634.88s7.88-2.4,19.87-4.72a202.62,202.62,0,0,1,20.81-2.88c3.89-.1,7.88-.42,12-.21l12.17,1,12.06,1c4,.51,7.82.08,11.59.11,7.5,0,14.54-.24,20.57-.85,6-.41,11.06-.86,14.55-1.36l5.5-.68-5.45,1c-3.44.72-8.43,1.47-14.44,2.24-6,1-13,1.59-20.68,2.1-3.8.2-7.79.84-11.77.59-4-.08-8-.14-12.08-.24l-12-.26c-3.84,0-7.67.58-11.33.88a201.58,201.58,0,0,0-19.83,4c-11.54,3-18.84,5.7-18.84,5.7Z"/><path class="cls-3" d="M719.56,664.55s6.85-2.06,17.22-4a179.2,179.2,0,0,1,18-2.44c3.37,0,6.82-.31,10.39-.12l10.52.9,10.4.88c3.45.45,6.73.11,10,.15,6.47,0,12.53-.16,17.74-.66,5.21-.32,9.55-.69,12.56-1.1s4.75-.56,4.75-.56l-4.69.87c-3,.66-7.27,1.32-12.45,2-5.15.85-11.24,1.43-17.85,1.91-3.3.18-6.74.75-10.17.54l-10.43-.15c-3.45-.06-6.91-.11-10.3-.18s-6.59.54-9.73.81a165.8,165.8,0,0,0-17,3.52c-9.91,2.6-16.18,5-16.18,5Z"/></svg>